<?xml version="1.0"?>
<svg xmlns="http://www.w3.org/2000/svg" viewBox="0 0 64 64" width="512" height="512"><path d="m22.82617 39a1.00035 1.00035 0 0 0 -.96777.74756l-.8484 3.25244h-18.01a1.00023 1.00023 0 0 0 -.96582 1.25928l2.68311 10a.99966.99966 0 0 0 .96582.74072h1.81689v1.18427a3 3 0 1 0 2 0v-1.18427h6v1.18427a3 3 0 1 0 2 0v-1.18427h1.59961a.99967.99967 0 0 0 .96582-.74072l2.68311-10 .00024-.00727.00171.00043.84814-3.25244h3.40137v-2z" fill="#3ad6ef"/><path d="m58.293 22.293-2.293 2.29294v-12.58594a1 1 0 0 0 -1-1h-33v2h32v11.58594l-2.293-2.293-1.414 1.41406 4 4a.99963.99963 0 0 0 1.41406 0l4-4z" fill="#ed4720"/><circle cx="13" cy="12" fill="#50c9d6" r="10"/><circle cx="41" cy="12" fill="#959fa5" r="8"/><path d="m15.29236 14.27075a4 4 0 1 0 -4.58472 0 4.13353 4.13353 0 0 0 -2.70764 3.87305v2.50745a9.94222 9.94222 0 0 0 10 0v-2.50745a4.13353 4.13353 0 0 0 -2.70764-3.87305z" fill="#1550af"/><path d="m41.291 11.32617c-1.31153-.40137-1.542-.58789-1.542-1.25a1.25173 1.25173 0 0 1 2.502 0h2a3.2071 3.2071 0 0 0 -2.251-3.03705v-2.03912h-2v2.03912a3.2071 3.2071 0 0 0 -2.251 3.037c0 2.2583 1.77979 2.80225 2.95752 3.1626 1.31348.40186 1.54444.58936 1.54444 1.25391a1.25172 1.25172 0 0 1 -2.502.00048h-2a3.20709 3.20709 0 0 0 2.25104 3.0371v1.46979h2v-1.46979a3.20728 3.20728 0 0 0 2.251-3.03753c0-2.26123-1.78127-2.80616-2.96-3.16651z" fill="#627077"/><path d="m32 33h30v29h-30z" fill="#1963ce"/><path d="m32 33v6.42857c0 1.97243 1.11926 3.57143 2.5 3.57143s2.5-1.599 2.5-3.57143v-6.42857z" fill="#ed4720"/><path d="m37 33v6.42857c0 1.97243 1.11926 3.57143 2.5 3.57143s2.5-1.599 2.5-3.57143v-6.42857z" fill="#c9e0f2"/><path d="m42 33v6.42857c0 1.97243 1.11926 3.57143 2.5 3.57143s2.5-1.599 2.5-3.57143v-6.42857z" fill="#ed4720"/><path d="m47 33v6.42857c0 1.97243 1.11926 3.57143 2.5 3.57143s2.5-1.599 2.5-3.57143v-6.42857z" fill="#c9e0f2"/><path d="m57 33v6.42857c0 1.97243 1.11926 3.57143 2.5 3.57143s2.5-1.599 2.5-3.57143v-6.42857z" fill="#c9e0f2"/><path d="m52 33v6.42857c0 1.97243 1.11926 3.57143 2.5 3.57143s2.5-1.599 2.5-3.57143v-6.42857z" fill="#ed4720"/><path d="m17.707 29.293-4-4a.99962.99962 0 0 0 -1.41406 0l-4 4 1.41406 1.414 2.293-2.29294v11.58594h2v-11.58594l2.293 2.293z" fill="#ed4720"/><path d="m36 50h8v12h-8z" fill="#55d5f2"/><path d="m48 46h10v7h-10z" fill="#55d5f2"/><path d="m16 52a11.99384 11.99384 0 0 1 -11.60669-9h-1.39331a1.00023 1.00023 0 0 0 -.96582 1.25928l2.68311 10a.99966.99966 0 0 0 .96582.74072h1.81689v1.18427a3 3 0 1 0 2 0v-1.18427h6v1.18427a3 3 0 1 0 2 0v-1.18427h1.59961a.99967.99967 0 0 0 .96582-.74072l.89685-3.34272a11.93652 11.93652 0 0 1 -4.96228 1.08344z" fill="#8fe9f2"/></svg>
