<?xml version="1.0"?>
<svg xmlns="http://www.w3.org/2000/svg" viewBox="0 0 64 64" width="512" height="512"><circle cx="48.91399" cy="49.34404" fill="#50c9d6" r="13"/><path d="m51.32245 51.40283a5.00006 5.00006 0 1 0 -4.6449 0 6.99668 6.99668 0 0 0 -4.67755 6.59717v1.94287a12.93836 12.93836 0 0 0 14 0v-1.94287a6.99668 6.99668 0 0 0 -4.67755-6.59717z" fill="#1550af"/><path d="m50 14h12v10h-12z" fill="#80898c"/><path d="m54 14h4v4h-4z" fill="#ed4720"/><path d="m46 22h-11.00012l1.79992-2.40039-1.5996-1.19922-3 4a.999.999 0 0 0 0 1.19922l3 4 1.5996-1.19922-1.79992-2.40039h11.00012z" fill="#3f4e56"/><path d="m55 27h2v6h-2z" fill="#3f4e56"/><path d="m5 48h7v11h-10v-6z" fill="#4278ba"/><path d="m5 48h3v4h-5.4z" fill="#92c0dd"/><path d="m12 45h18v14h-18z" fill="#77cced"/><path d="m30 45v14h-18z" fill="#7cbbe5"/><circle cx="23" cy="59" fill="#3f4e56" r="3"/><circle cx="9" cy="59" fill="#3f4e56" r="3"/><path d="m26 9.8v-7.8h-4v4.333l-5-4.333-15 13h6v13h18v-13h6z" fill="#4c9ecc"/><path d="m14 22v6h6v-6a3 3 0 0 0 -3-3 3 3 0 0 0 -3 3z" fill="#d6ebf2"/><path d="m53.1465 44.0172a5.18328 5.18328 0 0 0 -4.06049-2 5.04116 5.04116 0 0 0 -5 4h12a1 1 0 0 0 1-1 1 1 0 0 0 -1-1z" fill="#ed4720"/></svg>
