<?xml version="1.0" encoding="utf-8"?>
<!-- Generator: Adobe Illustrator 22.1.0, SVG Export Plug-In . SVG Version: 6.00 Build 0)  -->
<svg version="1.1" id="Layer_1" xmlns="http://www.w3.org/2000/svg" xmlns:xlink="http://www.w3.org/1999/xlink" x="0px" y="0px"
	 viewBox="0 0 302.9 98.7" style="enable-background:new 0 0 302.9 98.7;" xml:space="preserve">
<style type="text/css">
	.st0{fill:#8BC540;}
	.st1{clip-path:url(#SVGID_2_);}
	.st2{fill:#FAAF3A;}
	.st3{fill:#EC1E79;}
</style>
<g>
	
		<rect x="258.1" y="2.9" transform="matrix(0.7071 -0.7071 0.7071 0.7071 37.894 201.8939)" class="st0" width="9.1" height="104.6"/>
</g>
<g>
	
		<rect x="210.3" y="50.6" transform="matrix(0.7071 -0.7071 0.7071 0.7071 37.9144 201.8204)" class="st0" width="104.6" height="9.1"/>
</g>
<g>
	<defs>
		<rect id="SVGID_1_" x="-0.5" y="-0.3" width="303" height="99"/>
	</defs>
	<clipPath id="SVGID_2_">
		<use xlink:href="#SVGID_1_"  style="overflow:visible;"/>
	</clipPath>
	<g class="st1">
		<rect y="87.6" class="st2" width="74" height="9.1"/>
	</g>
	<g class="st1">
		<path class="st3" d="M183,98.2h-83v-83h83V98.2z M109,89.2h65v-65h-65V89.2L109,89.2z"/>
	</g>
	<g class="st1">
		<path class="st3" d="M198.8,83.1h-25V24.8h-58.1V0h83.1V83.1z M182.9,73.9h6.8V9.1h-64.8v6.5H183v58.3H182.9z"/>
	</g>
</g>
</svg>
