<svg xmlns="http://www.w3.org/2000/svg" width="32" height="29"><g fill="#0081CD"><circle cx="12.089" cy="9.244" r="2.133"/><path d="M30.107 17.349a6.76 6.76 0 0 0-3.786-1.809V4.322a4.422 4.422 0 0 0-1.252-3.065A4.258 4.258 0 0 0 22.015 0H4.305c-1.19 0-2.26.49-3.053 1.257A4.291 4.291 0 0 0 0 4.322V22.62c0 1.196.489 2.269 1.252 3.066a4.258 4.258 0 0 0 3.053 1.257h17.13c1.13.92 2.534 1.501 4.092 1.501 1.801 0 3.42-.735 4.58-1.9A6.497 6.497 0 0 0 32 21.946a6.497 6.497 0 0 0-1.893-4.597zM1.618 4.322c0-.736.306-1.41.794-1.87a2.674 2.674 0 0 1 1.893-.797h17.71c.733 0 1.405.307 1.893.797.489.49.794 1.165.794 1.9v9.564l-4.519-4.537a.818.818 0 0 0-1.16 0l-6.81 6.866-4.61-4.659a.818.818 0 0 0-1.16 0L1.618 16.49V4.322zm2.657 21.057v-.061a2.674 2.674 0 0 1-1.893-.797 2.803 2.803 0 0 1-.764-1.9V18.82l5.405-5.456 4.61 4.628c.306.307.825.307 1.16 0l6.81-6.866 4.458 4.506-.275.092c-.122.03-.244.061-.397.123-.122.03-.244.092-.366.122a.913.913 0 0 0-.244.123c-.123.061-.214.092-.306.153l-.458.276c-.091.061-.152.092-.244.153-.061.031-.092.062-.153.092a3.73 3.73 0 0 0-.733.644 6.497 6.497 0 0 0-1.893 4.598c0 .46.061.889.153 1.348.03.123.061.215.092.337.091.307.183.614.305.92v.03c.122.246.244.522.397.736H4.275zm24.641 0a4.763 4.763 0 0 1-3.42 1.41 4.807 4.807 0 0 1-3.328-1.348c-.122-.123-.244-.276-.366-.399-.092-.092-.184-.214-.275-.306-.122-.154-.214-.338-.306-.521-.06-.123-.122-.215-.183-.338a2.597 2.597 0 0 1-.153-.52c-.03-.123-.091-.277-.122-.4a5.092 5.092 0 0 1-.091-.98c0-1.349.55-2.544 1.404-3.433.855-.889 2.077-1.41 3.42-1.41 1.344 0 2.535.552 3.42 1.41a4.8 4.8 0 0 1 1.405 3.433c0 1.318-.55 2.513-1.405 3.402z"/><path d="M26.21 18.737a1.125 1.125 0 0 0-.289-.186.96.96 0 0 0-.289-.062h-.064a.942.942 0 0 0-.29.062.762.762 0 0 0-.289.186l-1.992 1.926c-.322.31-.322.838 0 1.18.321.31.867.31 1.221 0l.514-.497v3.416c0 .465.386.838.868.838s.868-.373.868-.838v-3.416l.514.497c.321.31.868.31 1.221 0 .322-.31.322-.839 0-1.18l-1.992-1.926z"/></g></svg>