<?xml version="1.0"?>
<svg xmlns="http://www.w3.org/2000/svg" viewBox="0 0 64 64" width="512" height="512"><path d="m54 32h-21v-11h-2v11h-21a.99974.99974 0 0 0 -1 1v13h2v-12h20v12h2v-12h20v12h2v-13a.99974.99974 0 0 0 -1-1z" fill="#ed4720"/><path d="m36 14v-7l-20 7v-12h-8v20h48v-15z" fill="#afa7a7"/><g fill="#726f6f"><path d="m18 17h2v2h-2z"/><path d="m24 17h2v2h-2z"/><path d="m30 17h2v2h-2z"/><path d="m42 17h2v2h-2z"/><path d="m48 17h2v2h-2z"/><path d="m36 17h2v2h-2z"/></g><path d="m15 51.75v-3.75h-2v2.25l-3-2.25-8 6h3v8h10v-8h3z" fill="#9ae1ed"/><path d="m2 54h3v8h5v-14z" fill="#77cced"/><path d="m37 51.75v-3.75h-2v2.25l-3-2.25-8 6h3v8h10v-8h3z" fill="#92c0dd"/><path d="m24 54h3v8h5v-14z" fill="#56b8e8"/><path d="m59 51.75v-3.75h-2v2.25l-3-2.25-8 6h3v8h10v-8h3z" fill="#6a96ba"/><path d="m46 54h3v8h5v-14z" fill="#4278ba"/></svg>
