<svg xmlns="http://www.w3.org/2000/svg" width="23" height="23"><g fill="none"><rect width="23" height="23" fill="#1E85C5" rx="1.5"/><path fill="#FFF" d="M16.038 6.695a2.367 2.367 0 0 0-3.35 0l-6.143 6.14a.307.307 0 0 0-.087.177l-.455 3.371a.306.306 0 0 0 .087.259.312.312 0 0 0 .217.091c.014 0 .028 0 .041-.002l2.031-.274a.31.31 0 0 0-.082-.613l-1.629.22.318-2.352 2.475 2.475a.303.303 0 0 0 .435 0l6.142-6.141a2.355 2.355 0 0 0 .695-1.677c0-.634-.247-1.228-.695-1.674zm-3.231.755l1.031 1.031-5.605 5.606L7.2 13.055l5.606-5.605zM9.68 15.533l-1.008-1.01 5.605-5.605 1.009 1.009-5.606 5.606zm6.036-6.048l-2.468-2.468c.313-.258.704-.4 1.116-.4a1.748 1.748 0 0 1 1.752 1.752c0 .414-.142.803-.4 1.116z"/></g></svg>