<svg xmlns="http://www.w3.org/2000/svg" width="23" height="23"><g fill="none"><rect width="23" height="23" fill="#1E85C5" rx="1.5"/><g transform="translate(10.733 4.6)"><rect width="1.517" height="9.95" x=".392" y="4.225" stroke="#FFF" stroke-width=".75" rx=".758"/><path fill="#FFF" d="M.337.336A1.16 1.16 0 0 1 1.15 0c.302 0 .599.123.813.337.214.214.337.51.337.813 0 .302-.123.599-.337.813a1.16 1.16 0 0 1-.813.337 1.16 1.16 0 0 1-.813-.337A1.16 1.16 0 0 1 0 1.15C0 .847.123.55.337.336zm.406 1.22a.58.58 0 0 0 .407.169.58.58 0 0 0 .406-.168.579.579 0 0 0 0-.813.58.58 0 0 0-.406-.169.58.58 0 0 0-.407.168.579.579 0 0 0 0 .813z"/></g></g></svg>