<svg xmlns="http://www.w3.org/2000/svg" width="17" height="17"><g fill="#FFF" stroke="#FFF" stroke-width=".5"><path d="M1 14.418C1 15.292 1.711 16 2.582 16h11.836c.874 0 1.582-.711 1.582-1.582V2.582C16 1.708 15.289 1 14.418 1H2.582C1.708 1 1 1.711 1 2.582v11.836zm13.418.831H2.582a.833.833 0 0 1-.831-.83v-1.977l2.844-2.845 2.43 2.43a.374.374 0 0 0 .531 0l4.389-4.388 3.304 3.304v3.475a.833.833 0 0 1-.83.831zM2.582 1.751h11.836c.457 0 .831.374.831.83V9.88l-3.04-3.037a.374.374 0 0 0-.53 0l-4.39 4.389L4.86 8.8a.374.374 0 0 0-.53 0l-2.58 2.577V2.582c0-.457.374-.831.83-.831z"/><path d="M6 7c1.104 0 2-.899 2-2s-.899-2-2-2-2 .899-2 2 .896 2 2 2zm0-3.213a1.215 1.215 0 0 1 0 2.426 1.215 1.215 0 0 1 0-2.427z"/></g></svg>