<svg xmlns="http://www.w3.org/2000/svg" width="23" height="23"><g fill="none"><rect width="23" height="23" fill="#BEBEBE" rx="1.5"/><path fill="#FFF" d="M13.37 15.392c.195 0 .353-.15.353-.336v-4.025a.345.345 0 0 0-.354-.335.345.345 0 0 0-.354.335v4.025c0 .185.159.336.354.336zm2.122-8.05H13.37V6.67c0-.37-.316-.671-.707-.671h-2.124c-.39 0-.707.3-.707.67v.672H7.708c-.391 0-.708.3-.708.67v.671c0 .37.317.671.708.671v6.038c0 .74.633 1.341 1.415 1.341h4.954c.782 0 1.415-.6 1.415-1.341V9.354c.391 0 .708-.3.708-.67v-.672c0-.37-.317-.67-.708-.67zm-4.954-.336c0-.185.159-.335.354-.335h1.416c.195 0 .354.15.354.335v.336h-2.124v-.336zm4.247 8.386c0 .37-.317.67-.708.67H9.123c-.39 0-.708-.3-.708-.67V9.354h6.37v6.038zm.353-6.709H8.062a.345.345 0 0 1-.354-.335c0-.185.158-.336.354-.336h7.076c.196 0 .354.15.354.336a.345.345 0 0 1-.354.335zm-5.307 6.709c.195 0 .354-.15.354-.336v-4.025a.345.345 0 0 0-.354-.335.345.345 0 0 0-.354.335v4.025c0 .185.158.336.354.336zm1.769 0c.195 0 .354-.15.354-.336v-4.025a.345.345 0 0 0-.354-.335.345.345 0 0 0-.354.335v4.025c0 .185.159.336.354.336z"/></g></svg>