<svg xmlns="http://www.w3.org/2000/svg" width="23" height="23"><g fill="none"><rect width="23" height="23" fill="#1EC57E" rx="1.5"/><path fill="#FFF" d="M13.8 6.133H9.857c-.695 0-1.314.651-1.314 1.342l-.38.01c-.695 0-1.263.641-1.263 1.332v6.708c0 .69.619 1.342 1.314 1.342h4.929c.695 0 1.314-.651 1.314-1.342h.329c.695 0 1.314-.651 1.314-1.342V8.825l-2.3-2.692zm-.657 10.063H8.214c-.345 0-.657-.33-.657-.671V8.817c0-.342.281-.66.626-.66l.36-.011v6.037c0 .691.619 1.342 1.314 1.342H13.8c0 .342-.312.67-.657.67zm2.3-2.013c0 .342-.312.671-.657.671H9.857c-.345 0-.657-.329-.657-.67v-6.71c0-.342.312-.67.657-.67h3.286c-.005.772 0 1.35 0 1.35 0 .696.614 1.333 1.314 1.333h.986v4.695zm-.986-5.366c-.35 0-.657-.65-.657-.998V6.814l1.643 2.003h-.986zm-.657 2.018h-2.957a.332.332 0 0 0-.329.335c0 .185.147.335.329.335H13.8c.181 0 .329-.15.329-.335a.332.332 0 0 0-.329-.335zm0 1.676h-2.957a.332.332 0 0 0-.329.335c0 .185.147.335.329.335H13.8c.181 0 .329-.15.329-.335a.332.332 0 0 0-.329-.335z"/></g></svg>