<svg width="3" height="10" viewBox="0 0 3 10" fill="none" xmlns="http://www.w3.org/2000/svg">
<path fill-rule="evenodd" clip-rule="evenodd" d="M1.97355 6.59112C1.96831 6.63689 1.95259 6.67809 1.92638 6.7147C1.90017 6.75132 1.8543 6.78222 1.78878 6.80739C1.72325 6.83257 1.63414 6.85202 1.52144 6.86575C1.40874 6.87948 1.27115 6.88635 1.10865 6.88635C0.940909 6.88635 0.802002 6.87948 0.691923 6.86575C0.581844 6.85202 0.494044 6.83257 0.42852 6.80739C0.362997 6.78222 0.317131 6.75132 0.290922 6.7147C0.264713 6.67809 0.248987 6.63689 0.243746 6.59112L0.0393138 0.357019C0.0393138 0.297516 0.0550392 0.244879 0.0864903 0.199107C0.117942 0.153335 0.174291 0.115574 0.25554 0.0858219C0.336789 0.0560701 0.446866 0.0343288 0.585776 0.0205973C0.724685 0.00686568 0.898974 0 1.10865 0C1.31832 0 1.4913 0.00800996 1.62759 0.0240301C1.76388 0.0400503 1.87265 0.0629359 1.9539 0.0926876C2.03514 0.122439 2.0928 0.159056 2.12688 0.20254C2.16095 0.246023 2.17798 0.297516 2.17798 0.357019L1.97355 6.59112ZM2.2173 8.85204C2.2173 9.06695 2.20026 9.2478 2.16619 9.39457C2.13212 9.54134 2.07184 9.65928 1.98535 9.74839C1.89886 9.8375 1.78485 9.90172 1.64332 9.94103C1.50179 9.98034 1.32357 10 1.10865 10C0.893733 10 0.714201 9.98034 0.57005 9.94103C0.425899 9.90172 0.31189 9.8375 0.22802 9.74839C0.14415 9.65928 0.0851801 9.54134 0.0511079 9.39457C0.0170358 9.2478 0 9.06695 0 8.85204C0 8.63188 0.0170358 8.44711 0.0511079 8.29771C0.0851801 8.14832 0.14415 8.02776 0.22802 7.93603C0.31189 7.84429 0.425899 7.77877 0.57005 7.73946C0.714201 7.70014 0.893733 7.68049 1.10865 7.68049C1.32357 7.68049 1.50179 7.70014 1.64332 7.73946C1.78485 7.77877 1.89886 7.84429 1.98535 7.93603C2.07184 8.02776 2.13212 8.14832 2.16619 8.29771C2.20026 8.44711 2.2173 8.63188 2.2173 8.85204Z" fill="#D65A5A"/>
</svg>
