<svg xmlns="http://www.w3.org/2000/svg" width="12" height="14"><path fill="#4A4A4A" d="M8.308 12.25a.45.45 0 0 0 .461-.437v-5.25a.45.45 0 0 0-.461-.438.45.45 0 0 0-.462.438v5.25a.45.45 0 0 0 .462.437zm2.769-10.5h-2.77V.875C8.308.392 7.896 0 7.386 0h-2.77c-.51 0-.923.392-.923.875v.875H.923c-.51 0-.923.392-.923.875V3.5c0 .483.413.875.923.875v7.875c0 .966.827 1.75 1.846 1.75h6.462c1.02 0 1.846-.784 1.846-1.75V4.375c.51 0 .923-.392.923-.875v-.875c0-.483-.413-.875-.923-.875zm-6.462-.438a.45.45 0 0 1 .462-.437h1.846a.45.45 0 0 1 .462.437v.438h-2.77v-.438zm5.539 10.938c0 .483-.413.875-.923.875H2.769c-.51 0-.923-.392-.923-.875V4.375h8.308v7.875zm.461-8.75h-9.23a.45.45 0 0 1-.462-.438.45.45 0 0 1 .462-.437h9.23a.45.45 0 0 1 .462.437.45.45 0 0 1-.462.438zm-6.923 8.75a.45.45 0 0 0 .462-.437v-5.25a.45.45 0 0 0-.462-.438.45.45 0 0 0-.461.438v5.25a.45.45 0 0 0 .461.437zm2.308 0a.45.45 0 0 0 .462-.437v-5.25A.45.45 0 0 0 6 6.125a.45.45 0 0 0-.462.438v5.25A.45.45 0 0 0 6 12.25z"/></svg>