<svg width="11" height="14" viewBox="0 0 11 14" fill="none" xmlns="http://www.w3.org/2000/svg">
<path d="M4.8057 1.13871H6.94317V1.49837H7.71509V1.08836C7.71518 0.690452 7.39163 0.366699 6.99391 0.366699H4.75496C4.35725 0.366699 4.03369 0.690452 4.03369 1.08836V1.49837H4.8057V1.13871Z" fill="white"/>
<path fill-rule="evenodd" clip-rule="evenodd" d="M2.25114 4.55713H9.49781C9.69638 4.55713 9.85269 4.72652 9.83659 4.9245L9.23075 12.4158C9.19699 12.8341 8.84816 13.1562 8.42908 13.1562H3.31978C2.90069 13.1562 2.55186 12.8341 2.5181 12.4159L1.91226 4.9245C1.89626 4.72652 2.05257 4.55713 2.25114 4.55713ZM3.98162 12.3579C3.98963 12.3579 3.99772 12.3576 4.00582 12.3572C4.21854 12.344 4.38041 12.1609 4.36724 11.9481L3.98767 5.79808C3.9746 5.58518 3.79067 5.42369 3.57864 5.43657C3.36593 5.44964 3.20405 5.63279 3.21713 5.8456L3.59679 11.9956C3.60938 12.2003 3.77925 12.3579 3.98162 12.3579ZM6.26477 11.9719C6.26477 12.185 6.09197 12.3578 5.87877 12.3578C5.66557 12.3578 5.49276 12.185 5.49276 11.9719V5.82179C5.49276 5.60859 5.66557 5.43579 5.87877 5.43579C6.09187 5.43579 6.26477 5.60859 6.26477 5.82179V11.9719ZM8.16933 11.9946L8.53182 5.84453C8.54431 5.63172 8.38195 5.44896 8.16914 5.43647C7.95574 5.42388 7.77367 5.58625 7.76118 5.79906L7.39879 11.9492C7.3862 12.162 7.54856 12.3447 7.76137 12.3572C7.76908 12.3576 7.77679 12.3578 7.7844 12.3578C7.98716 12.3578 8.15733 12.1997 8.16933 11.9946Z" fill="white"/>
<path d="M10.8328 3.36588L10.5793 2.60597C10.5125 2.40565 10.3249 2.27051 10.1137 2.27051H1.6355C1.42435 2.27051 1.23672 2.40565 1.16998 2.60597L0.916477 3.36588C0.867592 3.51244 0.931211 3.66192 1.04996 3.73647C1.09836 3.76682 1.15563 3.78506 1.21857 3.78506H10.5307C10.5936 3.78506 10.651 3.76682 10.6993 3.73637C10.8181 3.66182 10.8817 3.51234 10.8328 3.36588Z" fill="white"/>
</svg>
