<svg width="13" height="13" viewBox="0 0 13 13" fill="none" xmlns="http://www.w3.org/2000/svg">
<path fill-rule="evenodd" clip-rule="evenodd" d="M0 5.5C0 2.46738 2.46738 0 5.5 0C8.53279 0 11 2.46738 11 5.5C11 8.53279 8.53279 11 5.5 11C2.46738 11 0 8.53279 0 5.5ZM1.01539 5.50002C1.01539 7.97282 3.0272 9.98464 5.5 9.98464C7.9728 9.98464 9.98462 7.9728 9.98462 5.5C9.98462 3.0272 7.9728 1.01539 5.5 1.01539C3.0272 1.01539 1.01539 3.02723 1.01539 5.50002Z" fill="#2187C5"/>
<path d="M12.8484 12.1171L9.88294 9.15155C9.68087 8.94948 9.35362 8.94948 9.15155 9.15155C8.94948 9.35345 8.94948 9.68104 9.15155 9.88294L12.1171 12.8485C12.2181 12.9495 12.3503 13 12.4828 13C12.615 13 12.7474 12.9495 12.8484 12.8485C13.0505 12.6466 13.0505 12.319 12.8484 12.1171Z" fill="#2187C5"/>
</svg>
